<svg xmlns="http://www.w3.org/2000/svg" version="1.1" xmlns:xlink="http://www.w3.org/1999/xlink" xmlns:svgjs="http://svgjs.dev/svgjs" width="1500" height="1500" viewBox="0 0 1500 1500"><rect width="1500" height="1500" fill="#ffffff"></rect><g transform="matrix(0.6666666666666666,0,0,0.6666666666666666,251.25267849429082,234.21121276595773)"><svg viewBox="0 0 137 141" data-background-color="#ffffff" preserveAspectRatio="xMidYMid meet" height="1543" width="1500" xmlns="http://www.w3.org/2000/svg" xmlns:xlink="http://www.w3.org/1999/xlink"><g id="tight-bounds" transform="matrix(1,0,0,1,-0.17161695371783026,0.19949999999997203)"><svg viewBox="0 0 137.3432339074357 140.60052000000002" height="140.60052000000002" width="137.3432339074357"><g><svg viewBox="0 0 137.3432339074357 140.60052000000002" height="140.60052000000002" width="137.3432339074357"><g><svg viewBox="0 0 137.3432339074357 140.60052000000002" height="140.60052000000002" width="137.3432339074357"><g><path d="M0 140.601v-140.601h137.343v140.601z" fill="#000000" stroke="transparent" stroke-width="0" rx="0%" data-fill-palette-color="tertiary"></path><path d="M3.283 137.317v-134.034h130.777v134.034z" fill="#ffffff" stroke="transparent" stroke-width="0" rx="0%" data-fill-palette-color="quaternary"></path><path d="M9.85 130.751v-120.901h117.643v120.901z" fill="#000000" stroke="transparent" stroke-width="0" data-fill-palette-color="tertiary"></path></g><g transform="matrix(1,0,0,1,19.69974,19.69974)" id="textblocktransform"><svg viewBox="0 0 97.94375390743569 101.20104000000002" height="101.20104000000002" width="97.94375390743569" id="textblock"><g><svg viewBox="0 0 97.94375390743569 101.20104000000002" height="101.20104000000002" width="97.94375390743569"><g transform="matrix(1,0,0,1,0,0)"><svg width="97.94375390743569" viewBox="2.0181819052480003 -32.3 31.41363627657018 32.449999999999996" height="101.20104000000002" data-palette-color="#ffffff"><path d="M8-32.1L8-32.1Q9.45-32.1 10.83-32.18 12.2-32.25 13.7-32.3L13.7-32.3Q13.9-32.1 13.88-31.53 13.85-30.95 13.7-30.75L13.7-30.75Q13.4-30.75 12.6-30.68 11.8-30.6 11.1-30.45 10.4-30.3 10.3-30L10.3-30Q10.15-29.5 10.13-28.7 10.1-27.9 10.1-26.95L10.1-26.95Q10.1-26.8 10.1-26.65 10.1-26.5 10.1-26.35L10.1-26.35 10.1-17.8Q10.1-17.75 10.15-17.73 10.2-17.7 10.2-17.7L10.2-17.7Q12-17.65 13.9-17.6 15.8-17.55 17.85-17.55L17.85-17.55Q19.6-17.55 21.63-17.6 23.65-17.65 25.3-17.7L25.3-17.7Q25.3-17.7 25.35-17.75 25.4-17.8 25.4-17.85L25.4-17.85 25.4-26.35Q25.4-27.45 25.38-28.43 25.35-29.4 25.15-30L25.15-30Q25.1-30.3 24.38-30.45 23.65-30.6 22.88-30.68 22.1-30.75 21.8-30.75L21.8-30.75Q21.65-30.95 21.63-31.53 21.6-32.1 21.8-32.3L21.8-32.3Q23.3-32.25 24.73-32.18 26.15-32.1 27.55-32.1L27.55-32.1Q29-32.1 30.38-32.18 31.75-32.25 33.25-32.3L33.25-32.3Q33.45-32.1 33.43-31.53 33.4-30.95 33.25-30.75L33.25-30.75Q32.95-30.75 32.18-30.68 31.4-30.6 30.7-30.45 30-30.3 29.9-30L29.9-30Q29.7-29.4 29.68-28.43 29.65-27.45 29.65-26.35L29.65-26.35 29.65-5.8Q29.65-4.7 29.68-3.75 29.7-2.8 29.9-2.2L29.9-2.2Q30-1.95 30.7-1.75 31.4-1.55 32.18-1.48 32.95-1.4 33.25-1.4L33.25-1.4Q33.4-1.2 33.43-0.63 33.45-0.05 33.25 0.15L33.25 0.15Q31.75 0.05 30.38-0.03 29-0.1 27.55-0.1L27.55-0.1Q26.15-0.1 24.73-0.03 23.3 0.05 21.8 0.15L21.8 0.15Q21.6-0.05 21.63-0.63 21.65-1.2 21.8-1.4L21.8-1.4Q22.1-1.4 22.88-1.48 23.65-1.55 24.38-1.75 25.1-1.95 25.15-2.2L25.15-2.2Q25.35-2.8 25.38-3.75 25.4-4.7 25.4-5.8L25.4-5.8 25.4-15.5Q25.4-15.6 25.35-15.63 25.3-15.65 25.3-15.65L25.3-15.65Q23.6-15.7 21.68-15.78 19.75-15.85 17.85-15.85L17.85-15.85Q14.45-15.85 12.85-15.8 11.25-15.75 10.75-15.7 10.25-15.65 10.15-15.6L10.15-15.6Q10.1-15.55 10.1-15.53 10.1-15.5 10.1-15.5L10.1-15.5 10.1-5.8Q10.1-5.65 10.1-5.5 10.1-5.35 10.1-5.2L10.1-5.2Q10.1-4.25 10.13-3.48 10.15-2.7 10.3-2.2L10.3-2.2Q10.4-1.95 11.1-1.75 11.8-1.55 12.6-1.48 13.4-1.4 13.7-1.4L13.7-1.4Q13.85-1.2 13.88-0.63 13.9-0.05 13.7 0.15L13.7 0.15Q12.2 0.05 10.83-0.03 9.45-0.1 8-0.1L8-0.1Q6.6-0.1 5.15-0.03 3.7 0.05 2.2 0.15L2.2 0.15Q2-0.05 2.02-0.63 2.05-1.2 2.2-1.4L2.2-1.4Q2.5-1.4 3.3-1.48 4.1-1.55 4.83-1.75 5.55-1.95 5.6-2.2L5.6-2.2Q5.8-2.8 5.83-3.75 5.85-4.7 5.85-5.8L5.85-5.8 5.85-26.35Q5.85-27.45 5.83-28.43 5.8-29.4 5.6-30L5.6-30Q5.55-30.3 4.83-30.45 4.1-30.6 3.3-30.68 2.5-30.75 2.2-30.75L2.2-30.75Q2.05-30.95 2.02-31.53 2-32.1 2.2-32.3L2.2-32.3Q3.7-32.25 5.15-32.18 6.6-32.1 8-32.1Z" opacity="1" transform="matrix(1,0,0,1,0,0)" fill="#ffffff" class="wordmark-text-0" data-fill-palette-color="quaternary" id="text-0"></path></svg></g></svg></g></svg></g></svg></g><g></g></svg></g><defs></defs></svg><rect width="137.3432339074357" height="140.60052000000002" fill="none" stroke="none" visibility="hidden"></rect></g></svg></g></svg>